<svg fill="none" height="62" viewBox="0 0 62 62" width="62" xmlns="http://www.w3.org/2000/svg"><circle cx="31" cy="31" fill="#f5f5f5" r="30.5" stroke="#a8d1d0"/><g stroke="#09161c" stroke-linecap="round" stroke-linejoin="round" stroke-width=".75"><path d="m32.0159 26.4558c.8882.001 1.7686.1666 2.5965.4884-.1653-.8606-.5559-1.662-1.1319-2.3224-.5761-.6605-1.3169-1.1564-2.1471-1.4371v-11.6158c0-.4161-.1653-.8152-.4595-1.1094s-.6933-.4595-1.1094-.4595-.8151.1653-1.1094.4595c-.2942.2942-.4595.6933-.4595 1.1094v11.6158c-.859.2875-1.6227.8053-2.2078 1.4969s-.9692 1.5305-1.1104 2.4253c.9382-.4333 1.9592-.6581 2.9927-.6589z" fill="#fff"/><path d="m39.1936 33.5235c-.0259-1.4296-.4772-2.819-1.2963-3.991-.8191-1.1719-1.9689-2.0731-3.3026-2.5886-.8279-.3218-1.7082-.4873-2.5965-.4883h-4.1537c-1.0322-.0016-2.0525.2205-2.9907.6511-1.2079.5514-2.2396 1.4265-2.9807 2.5283-.7412 1.1018-1.1627 2.3873-1.2181 3.7139l-.655 15.9166h19.4799z" fill="#fff"/><path d="m23.2477 34.1553v13.9122" stroke-dasharray="3.6 3.6"/><path d="m26.4952 34.1553v13.9122" stroke-dasharray="3.6 3.6"/><path d="m29.7409 34.1553v13.9122" stroke-dasharray="3.6 3.6"/><path d="m32.9885 34.1553v13.9122" stroke-dasharray="3.6 3.6"/><path d="m36.2343 34.1553v13.9122" stroke-dasharray="3.6 3.6"/><path d="m44.7809 41.0189c1.1784 0 2.1337-.9553 2.1337-2.1337s-.9553-2.1337-2.1337-2.1337-2.1337.9553-2.1337 2.1337.9553 2.1337 2.1337 2.1337z" fill="#fff"/><path d="m44.1769 46.6771c.9477 0 1.716-.7683 1.716-1.716s-.7683-1.716-1.716-1.716-1.716.7683-1.716 1.716.7683 1.716 1.716 1.716z" fill="#fff"/><path d="m49.6974 42.9664c.7679 0 1.3904-.6225 1.3904-1.3904s-.6225-1.3905-1.3904-1.3905-1.3905.6226-1.3905 1.3905.6226 1.3904 1.3905 1.3904z" fill="#fff"/></g></svg>