<svg fill="none" height="14" viewBox="0 0 51 14" width="51" xmlns="http://www.w3.org/2000/svg"><g fill="#fff"><path d="m6.79416 9.16522v-3.32862c0-1.52822-1.16814-2.44109-3.12406-2.44109-1.73447 0-2.934728.81821-3.291426 2.24669-.025357.10481-.00338.21638.06424.30091.06593.08452.169051.13524.277243.13524h.518983c.15384 0 .28908-.09974.33473-.24682.32288-1.02783 1.31859-1.24252 2.09623-1.24252 1.27126 0 1.91535.41924 1.91535 1.24759 0 .51392-.73368.67621-2.27543.82497-.99064.0896-3.31002.30092-3.31002 2.45294 0 1.11569.909495 2.31769 2.90599 2.31769 2.02185 0 3.6346-.8351 3.88817-2.26698zm-3.88986 1.05998c-.01691 0-1.6567-.0136-1.6567-1.12422 0-.51391.16905-1.07685 2.17737-1.27464.72861-.06086 1.52992-.12848 2.16048-.40234v.98049c0 1.25774-1.34565 1.82071-2.68115 1.82071z"/><path d="m23.7705 3.39551c-2.1301 0-3.8611 1.82406-3.8611 4.06568 0 2.25007 1.7327 4.01161 3.9439 4.01161 1.7869 0 3.07-.9214 3.6126-2.59158.0339-.10651.0153-.22315-.0507-.31444-.0659-.09129-.1724-.14538-.284-.14538h-.5325c-.1471 0-.2789.09128-.3296.22991-.3939 1.07009-1.2071 1.61439-2.4158 1.61439-1.4318 0-2.5459-1.043-2.7132-2.47993h6.1416c.191 0 .3482-.15384.3516-.34656.0152-1.04643-.4311-2.13343-1.1969-2.91106-.7218-.7303-1.6685-1.13264-2.6659-1.13264zm-2.5138 3.18323c.3432-1.158 1.3456-1.96099 2.5121-1.96099 1.1614 0 2.1689.80299 2.5222 1.96099z"/><path d="m37.9097 1.5918h-.5054c-.1944 0-.3517.15721-.3517.35162v.55618c0 .19441.1573.35163.3517.35163h.5054c.1944 0 .3517-.15722.3517-.35163v-.55618c0-.19441-.1573-.35162-.3517-.35162z"/><path d="m37.9097 3.57324h-.5054c-.1944 0-.3517.15722-.3517.35163v7.03423c0 .1944.1573.3516.3517.3516h.5054c.1944 0 .3517-.1572.3517-.3516v-7.03423c0-.19441-.1573-.35163-.3517-.35163z"/><path d="m43.6832.66538c-.1031-.008453-.7269-.013525-.8249-.013525-1.5097 0-2.4834 1.092075-2.4834 2.780895v.14031h-.6052c-.1944 0-.3516.15722-.3516.35162v.50547c0 .19441.1572.35162.3516.35162h.6052v6.17713c0 .1944.1572.3516.3516.3516h.519c.1944 0 .3516-.1572.3516-.3516v-6.17713h1.5333c.1944 0 .3517-.15721.3517-.35162v-.50547c0-.1944-.1573-.35162-.3517-.35162h-1.5333v-.09974c0-1.64825 1.0211-1.64825 1.3558-1.64825.0507 0 .6255.00169.6796.00507h.022c.0896 0 .1758-.03381.24-.09467.071-.06593.1099-.1589.1099-.25526v-.46489c-.0017-.18258-.1403-.333035-.3212-.34994z"/><path d="m50.9378 3.72539c-.066-.09467-.1742-.15215-.2891-.15215h-.5325c-.1454 0-.2773.0896-.328.22653l-2.0607 5.43837-2.0354-5.43668c-.0507-.13693-.1826-.22822-.3296-.22822h-.5461c-.1149 0-.2231.05748-.289.15215-.066.09467-.0812.21638-.0389.32458l2.6034 6.89563-.2807.7387c-.2941.7861-.7252 1.1208-1.4403 1.1208-.1318 0-.2772-.0118-.4311-.0355-.0169-.0034-.0355-.0034-.0524-.0034-.0828 0-.1656.0305-.2299.0846-.0777.0659-.1217.1639-.1217.2654v.4784c0 .169.12.3144.2874.3449.2147.0405.426.0608.6255.0608 1.1512 0 2.0387-.6728 2.4986-1.8934l3.0327-8.05862c.0372-.1082.022-.22822-.0422-.32289z"/><path d="m15.8738 3.39551c-.9889 0-1.8494.43615-2.3751 1.17152-.0034.00507-.0068.00845-.0102.01353-.0034-.00508-.0067-.00846-.0101-.01353-.5258-.73537-1.3846-1.17152-2.3752-1.17152-1.75475 0-3.0277 1.27295-3.0277 3.0277v4.53399c0 .1944.15722.3516.35163.3516h.50546c.19441 0 .35163-.1572.35163-.3516v-4.5323c0-1.06333.74888-1.80715 1.82068-1.80715 1.0633 0 1.8072.74382 1.8072 1.80715v4.534c0 .1944.1572.3516.3516.3516h.2011.0508.2011c.1944 0 .3517-.1572.3517-.3516v-4.534c0-1.06333.7438-1.80715 1.8071-1.80715 1.0718 0 1.8207.74382 1.8207 1.80715v4.534c0 .1944.1572.3516.3516.3516h.5055c.1944 0 .3516-.1572.3516-.3516v-4.534c-.0017-1.75475-1.2763-3.02939-3.0311-3.02939z"/><path d="m32.669 3.44284c-.0271-.00507-.0558-.00845-.0828-.01183-.0085-.00169-.0153-.00169-.0237-.00338-.1589-.02029-.3229-.03212-.4886-.03212-.0067 0-.0118 0-.0186 0-.0067 0-.0118 0-.0186 0-.1673 0-.3296.01183-.4885.03212-.0085.00169-.0152.00169-.0237.00338-.027.00338-.0558.00845-.0828.01183-1.6111.24513-2.5865 1.45046-2.5865 3.26776v4.2483c0 .1944.1572.3516.3516.3516h.5055c.1944 0 .3516-.1572.3516-.3516v-4.2483c0-.65423.1623-1.39467.7861-1.80547.2062-.12509.4378-.21638.6897-.2671.1556-.03043.328-.04564.5173-.04733.1894.00169.3618.01859.5173.04733.2502.05072.4818.1437.6897.2671.6238.40911.7861 1.14955.7861 1.80547v4.2483c0 .1944.1573.3516.3517.3516h.5054c.1944 0 .3516-.1572.3516-.3516v-4.2483c-.0033-1.8173-.9788-3.02094-2.5898-3.26776z"/></g></svg>