<svg fill="none" height="62" viewBox="0 0 62 62" width="62" xmlns="http://www.w3.org/2000/svg" xmlns:xlink="http://www.w3.org/1999/xlink"><clipPath id="a"><path d="m13 10h36v39h-36z"/></clipPath><circle cx="31" cy="31" fill="#f5f5f5" r="30.5" stroke="#a8d1d0"/><g clip-path="url(#a)" fill="#fff" stroke-width=".75"><g stroke="#010101" stroke-miterlimit="10"><path d="m37.7583 21.0864h-11.1524c-.7277.0084-1.43.2672-1.9876.7325-.5576.4652-.9361 1.1081-1.0712 1.8194l-1.5984 7.3062c-.903.1953-1.7109.6936-2.2882 1.4114s-.8888 1.6114-.8822 2.5306v5.5524h-.2803c-.1295.0006-.2534.0521-.3448.1434-.0913.0912-.1426.2148-.1426.3436v3.0045c-.0003.0637.0121.1269.0365.1859.0244.0589.0603.1125.1056.1576.0454.045.0992.0808.1585.105.0592.0243.1227.0367.1868.0364h1.7264v2.1559c-.009.295.0417.5887.1489.8638.1073.2752.269.5261.4755.7379.2066.2118.4538.3802.727.4952s.5668.1742.8634.1742c.2967 0 .5903-.0592.8635-.1742s.5204-.2834.7269-.4952c.2066-.2118.3683-.4627.4755-.7379.1073-.2751.1579-.5688.149-.8638v-2.1539h17.5054v2.1559c-.009.295.0417.5887.1489.8639.1073.2751.269.526.4756.7378.2065.2118.4537.3802.7269.4952s.5668.1742.8634.1742c.2967 0 .5903-.0592.8635-.1742s.5204-.2834.7269-.4952c.2066-.2118.3683-.4627.4755-.7378.1073-.2752.158-.5689.149-.8639v-2.1559h1.7203c.064.0003.1275-.0121.1868-.0363.0593-.0243.1131-.06.1584-.1051.0454-.0451.0812-.0987.1056-.1576.0244-.059.0369-.1221.0366-.1859v-3.0045c.0003-.0639-.0121-.1271-.0365-.1862s-.0603-.1128-.1055-.158c-.0453-.0453-.0992-.0811-.1584-.1056-.0593-.0245-.1229-.0372-.187-.0372h-.2783v-5.5544h.0203c.0071-.9196-.3042-1.8136-.8815-2.5318-.5774-.7182-1.3856-1.2169-2.2889-1.4122l-1.5984-7.3062c-.1355-.711-.5142-1.3534-1.0718-1.8182-.5575-.4648-1.2596-.7233-1.987-.7317z"/><path d="m37.6526 34.4683h-8.4917c-.1298 0-.2543.0513-.3461.1426s-.1434.2152-.1434.3443v2.6267c0 .0638.0127.1271.0373.186.0246.059.0607.1125.1062.1576.0455.045.0995.0807.1588.105.0594.0242.123.0366.1872.0363h8.4978c.0642.0003.1278-.0121.1872-.0363.0594-.0243.1133-.06.1588-.105.0455-.0451.0816-.0986.1062-.1576.0246-.0589.0373-.1222.0373-.186v-2.6267c0-.1291-.0516-.253-.1434-.3443s-.2163-.1426-.3461-.1426z"/><path d="m23.9737 33.8883c-.4738-.0048-.9384.1306-1.3347.389-.3963.2583-.7065.628-.8912 1.0622-.1847.4341-.2355.913-.146 1.3759.0894.4629.3152.8889.6485 1.2239s.7592.5639 1.2236.6577c.4644.0937.9463.0481 1.3845-.1312s.813-.484 1.0768-.8756.4046-.8524.4046-1.3237c.0022-.6272-.2456-1.2297-.6891-1.6755-.4436-.4457-1.0466-.6984-1.677-.7027z"/><path d="m40.4676 36.2668c.0048.4645.1477.9172.4106 1.3011s.6341.6818 1.0669.8563c.4327.1744.9077.2176 1.3651.1241.4573-.0936.8767-.3197 1.2051-.6498.3285-.3302.5515-.7496.6408-1.2055.0893-.456.0411-.928-.1387-1.3567s-.4831-.795-.8716-1.0525c-.3886-.2576-.8451-.3951-1.312-.3951-.6305.0042-1.2335.2569-1.677.7027s-.6913 1.0482-.6892 1.6754z"/><path d="m23.5004 30.5505 1.4522-6.2919c.0984-.4488.3475-.8509.7064-1.14.3589-.289.806-.4478 1.2678-.4501h12.96c.4628.0009.9114.1591 1.2715.4482.3601.2892.6102.6921.7087 1.1419l1.4502 6.2919z"/></g><path d="m25.3202 16.4354c-1.9114 1.5049-3.4151 3.4606-4.3748 5.6898l-.2356.5435-.132-.2909c-1.1116-2.4392-2.9125-4.5039-5.1832-5.9424 2.262-1.1623 4.0319-3.0907 4.9902-5.4372l.325-.7961.5484 1.3679c.8061 2.0064 2.2274 3.7089 4.062 4.8654z" stroke="#09161c" stroke-linecap="round" stroke-linejoin="round"/><path d="m19.8567 26.2287c-1.2805 1.0074-2.2885 2.3164-2.9328 3.8087l-.1523.3697-.0894-.202c-.7471-1.6333-1.956-3.015-3.4791-3.9764 1.5144-.7778 2.7005-2.0673 3.3451-3.6369l.2234-.5415.3636.9153c.54 1.3451 1.4923 2.4868 2.7215 3.2631z" stroke="#09161c" stroke-linecap="round" stroke-linejoin="round"/></g></svg>