<svg fill="none" height="62" viewBox="0 0 62 62" width="62" xmlns="http://www.w3.org/2000/svg"><circle cx="31" cy="31" fill="#f5f5f5" r="30.5" stroke="#a8d1d0"/><path d="m24.4509 31.3659 3.3593-7.0695h19.4351l2.6448 7.0695" fill="#fff"/><g stroke="#00121a" stroke-linecap="round" stroke-linejoin="round" stroke-width=".75"><path d="m24.4509 31.3659 3.3593-7.0695h19.4351l2.6448 7.0695"/><path d="m48.159 32.146h-21.2213v18.9583h6.6731v-10.562h7.5791v10.562h6.9691z" fill="#fff"/><path d="m36.3406 27.333h8.7356" stroke-dasharray="3.6 3.6"/><path d="m37.7774 29.3408h8.7376" stroke-dasharray="3.6 3.6"/><path d="m39.5082 45.9321v1.964"/><path d="m28.5443 16.2206c-1.8575 1.5024-3.3193 3.4539-4.2533 5.6782l-.227.5425-.1283-.2904c-1.0812-2.4347-2.8328-4.4953-5.0409-5.9303 2.1974-1.161 3.917-3.0852 4.8495-5.4261l.3157-.7945.5329 1.3651c.7838 2.0032 2.1667 3.7025 3.9514 4.8555z" fill="#fff"/><path d="m17.0179 23.9052c-1.1614.9354-2.0765 2.1516-2.6626 3.5388l-.1421.3387-.0789-.1815c-.6733-1.5155-1.7619-2.7993-3.1343-3.696 1.3726-.7248 2.4464-1.927 3.0277-3.3896l.1973-.4961.3336.853c.4876 1.2497 1.3481 2.3108 2.4593 3.0327z" fill="#fff"/><path d="m23.7481 34.4307c-1.6169 1.3084-2.8895 3.0076-3.7026 4.9443l-.1974.4718-.1125-.252c-.9423-2.1209-2.469-3.9154-4.3935-5.1641 1.9142-1.01 3.4122-2.6855 4.2237-4.7244l.2764-.6917.4638 1.1877c.6827 1.7447 1.8874 3.2246 3.4421 4.2284z" fill="#fff"/></g></svg>