<svg fill="none" height="62" viewBox="0 0 62 62" width="62" xmlns="http://www.w3.org/2000/svg"><circle cx="31" cy="31" fill="#f5f5f5" r="30.5" stroke="#a8d1d0"/><g stroke="#09161c" stroke-linecap="round" stroke-linejoin="round" stroke-width=".75"><path d="m34.4584 20.8557c.5231.0245 1.0442.0808 1.5605.1683v-1.0848c.01-.2774-.036-.5539-.1353-.813-.0992-.2592-.2497-.4957-.4423-.6954-.1927-.1997-.4236-.3586-.6791-.4671-.2554-.1085-.53-.1644-.8075-.1644s-.5522.0559-.8076.1644-.4864.2674-.679.4671c-.1927.1997-.3432.4362-.4424.6954-.0992.2591-.1452.5356-.1353.813v1.0875c.8476-.1475 1.7083-.2048 2.568-.171z" fill="#fff"/><path d="m36.711 23.0469c-1.6435-.2865-3.3241-.2865-4.9675 0-3.2885.568-6.2833 2.2453-8.4857 4.7526-2.2025 2.5072-3.4797 5.6932-3.6191 9.0276v.2004h29.1797c-.0943-3.3697-1.3516-6.603-3.5584-9.1513-2.2069-2.5482-5.2274-4.2545-8.549-4.8293z" fill="#fff"/><path d="m29.221 34.3926h17.2887"/><path d="m6.01083 31.9204h11.77337" stroke-dasharray="3.6 3.6"/><path d="m9.88815 35.8672h7.29755" stroke-dasharray="3.6 3.6"/><path d="m11.8387 27.5864h10.074" stroke-dasharray="3.6 3.6"/><path d="m50.28 39.2397h-32.2687c-.5622 0-1.018.4559-1.018 1.0181v.7242c0 .5622.4558 1.0181 1.018 1.0181h32.2687c.5623 0 1.0181-.4559 1.0181-1.0181v-.7242c0-.5622-.4558-1.0181-1.0181-1.0181z" fill="#fff"/></g></svg>