<svg fill="none" height="57" viewBox="0 0 46 57" width="46" xmlns="http://www.w3.org/2000/svg"><g stroke="#00121a" stroke-linecap="round" stroke-linejoin="round" stroke-width=".75"><path d="m18.0067 23.9821c1.2571.0014 2.5032.2357 3.6749.6911-.234-1.218-.7868-2.3522-1.6021-3.287-.8153-.9347-1.8638-1.6366-3.0388-2.0339v-16.44035c0-.58893-.2339-1.15373-.6503-1.57016-.4165-.416435-.9813-.650384-1.5702-.650384s-1.1537.233949-1.5702.650384c-.4164.41643-.6503.98123-.6503 1.57016v16.44035c-1.2159.4069-2.2968 1.1398-3.12488 2.1186-.82812.9789-1.37174 2.1662-1.57162 3.4327 1.3279-.6133 2.773-.9315 4.2357-.9326z" fill="#a8d1d0" fill-opacity=".5"/><path d="m28.1655 33.9855c-.0366-2.0234-.6753-3.9899-1.8347-5.6486-1.1593-1.6587-2.7866-2.9342-4.6742-3.6638-1.1718-.4554-2.4178-.6898-3.675-.6912h-5.8789c-1.461-.0022-2.90508.3122-4.23291.9216-1.70965.7804-3.16985 2.019-4.21877 3.5784s-1.64561 3.3788-1.72395 5.2565l-.92707 22.5274h27.5708z" fill="#a8d1d0" fill-opacity=".5"/><g stroke-dasharray="3.6 3.6"><path d="m5.59656 34.8794v19.6906"/><path d="m10.1929 34.8794v19.6906"/><path d="m14.7867 34.8794v19.6906"/><path d="m19.3832 34.8794v19.6906"/><path d="m23.9771 34.8794v19.6906"/></g><path d="m36.0735 44.5936c1.6678 0 3.0199-1.3521 3.0199-3.02 0-1.6678-1.3521-3.0199-3.0199-3.0199-1.6679 0-3.02 1.3521-3.02 3.0199 0 1.6679 1.3521 3.02 3.02 3.02z" fill="#a8d1d0" fill-opacity=".5"/><path d="m35.2186 52.6021c1.3413 0 2.4287-1.0874 2.4287-2.4288 0-1.3413-1.0874-2.4287-2.4287-2.4287-1.3414 0-2.4287 1.0874-2.4287 2.4287 0 1.3414 1.0873 2.4288 2.4287 2.4288z" fill="#a8d1d0" fill-opacity=".5"/><path d="m43.0321 47.3505c1.0868 0 1.9679-.8811 1.9679-1.968s-.8811-1.9679-1.9679-1.9679c-1.0869 0-1.968.881-1.968 1.9679s.8811 1.968 1.968 1.968z" fill="#a8d1d0" fill-opacity=".5"/></g></svg>